 http://desibbrg.org/images/66952052392581364616.gif 
http://desibbrg.org/images/78774932808467512074.jpg 
http://desibbrg.org/images/60285575326605432414.jpg 
http://desibbrg.org/images/22049897901804711843.jpg 
http://desibbrg.org/images/97332503750104201193.jpg 
http://desibbrg.org/images/61149164914963840600.jpg

Info - 
Genre : Action, Romance
Year : 2013
Cast : Vivek Oberoi, Neha Sharma
Runtime : 2Hr 05Min
Source : Intellect Clever & Team IcTv

Media Info - 
General
Complete name : Jayanta Bhai Ki Love Story (2013) DVDScr Rip -Xvid - Team IcTv Exclusive.avi
Format : AVI
Format/Info : Audio Video Interleave
File size : 697 MiB
Duration : 2h 5mn
Overall bit rate mode : Variable
Overall bit rate : 777 Kbps

Video
ID : 0
Format : MPEG-4 Visual
Format profile : Advanced Simple@L5
Format settings, BVOP : 2
Format settings, QPel : No
Format settings, GMC : No warppoints
Format settings, Matrix : Default (H.263)
Codec ID : XVID
Codec ID/Hint : XviD
Duration : 2h 5mn
Bit rate : 679 Kbps
Width : 640 pixels
Height : 272 pixels
Display aspect ratio : 2.35:1
Frame rate : 23.976 fps
Color space : YUV
Chroma subsampling : 4:2:0
Bit depth : 8 bits
Scan type : Progressive
Compression mode : Lossy
Bits/(Pixel*Frame) : 0.163
Stream size : 609 MiB (87%)
Writing library : XviD 1.2.1 (UTC 2008-12-04)

Audio
ID : 1
Format : MPEG Audio
Format version : Version 1
Format profile : Layer 3
Mode : Joint stereo
Mode extension : MS Stereo
Codec ID : 55
Codec ID/Hint : MP3
Duration : 2h 5mn
Bit rate mode : Variable
Bit rate : 88.1 Kbps
Nominal bit rate : 96.0 Kbps
Channel(s) : 2 channels
Sampling rate : 32.0 KHz
Compression mode : Lossy
Stream size : 79.0 MiB (11%)
Alignment : Aligned on interleaves
Interleave, duration : 36 ms (0.86 video frame)
Interleave, preload duration : 206 ms
Title : VTS_02_1 T80 2_0ch 192Kbps DELAY 0ms
Writing library : LAME3.99r
Encoding settings : -m j -V 4 -q 2 -lowpass 15.1 --abr 96

Ripper : Master Mind

Seeding 24x7... Extreme Seeding...


Enjoy!
